<svg width="43" height="43" viewBox="0 0 43 43" fill="none" xmlns="http://www.w3.org/2000/svg">
<rect width="43" height="43" rx="21.5" fill="#363B42"/>
<path d="M17.9167 28.6667H25.0834M16.1251 12.5417L14.3334 5.375M26.8751 12.5417L28.6667 5.375M12.5417 12.5417H30.4584C31.4088 12.5417 32.3202 12.9192 32.9922 13.5912C33.6642 14.2632 34.0417 15.1746 34.0417 16.125V17.9167L35.8334 19.7083V25.0833L34.0417 26.875V32.25C34.0417 33.2004 33.6642 34.1118 32.9922 34.7838C32.3202 35.4558 31.4088 35.8333 30.4584 35.8333H12.5417C11.5914 35.8333 10.68 35.4558 10.0079 34.7838C9.33594 34.1118 8.95841 33.2004 8.95841 32.25V26.875L7.16675 25.0833V19.7083L8.95841 17.9167V16.125C8.95841 15.1746 9.33594 14.2632 10.0079 13.5912C10.68 12.9192 11.5914 12.5417 12.5417 12.5417ZM16.1251 20.6042C16.1251 21.0989 15.724 21.5 15.2292 21.5C14.7345 21.5 14.3334 21.0989 14.3334 20.6042C14.3334 20.1094 14.7345 19.7083 15.2292 19.7083C15.724 19.7083 16.1251 20.1094 16.1251 20.6042ZM28.6667 20.6042C28.6667 21.0989 28.2657 21.5 27.7709 21.5C27.2762 21.5 26.8751 21.0989 26.8751 20.6042C26.8751 20.1094 27.2762 19.7083 27.7709 19.7083C28.2657 19.7083 28.6667 20.1094 28.6667 20.6042Z" stroke="#D9DBDD" stroke-width="2" stroke-linecap="round" stroke-linejoin="round"/>
</svg>
